<svg width="1836" height="144" viewBox="0 0 1836 144" fill="none" xmlns="http://www.w3.org/2000/svg">
<path d="M5.24844 170.658C3.96844 170.658 2.84844 170.178 1.88844 169.218C0.928438 168.258 0.448438 167.138 0.448438 165.858C0.448438 165.058 0.528438 164.178 0.688438 163.218L60.2084 7.9382C60.8484 6.3382 61.7284 5.0582 62.8484 4.0982C63.9684 3.1382 65.6484 2.65819 67.8884 2.65819H84.2084C86.2884 2.65819 87.8884 3.1382 89.0084 4.0982C90.2884 5.0582 91.2484 6.3382 91.8884 7.9382L151.168 163.218C151.488 164.178 151.648 165.058 151.648 165.858C151.648 167.138 151.168 168.258 150.208 169.218C149.248 170.178 148.128 170.658 146.848 170.658H134.608C132.688 170.658 131.248 170.178 130.288 169.218C129.488 168.258 128.928 167.378 128.608 166.578L115.408 132.498H36.6884L23.4884 166.578C23.3284 167.378 22.7684 168.258 21.8084 169.218C20.8484 170.178 19.4084 170.658 17.4884 170.658H5.24844ZM43.6484 111.858H108.448L76.0484 26.6582L43.6484 111.858ZM182.83 170.658C181.07 170.658 179.71 170.178 178.75 169.218C177.79 168.098 177.31 166.738 177.31 165.138V8.41819C177.31 6.65819 177.79 5.2982 178.75 4.3382C179.71 3.21819 181.07 2.65819 182.83 2.65819L195.07 2.65819C196.83 2.65819 198.19 3.21819 199.15 4.3382C200.27 5.2982 200.83 6.65819 200.83 8.41819V74.6582H283.39V8.41819C283.39 6.65819 283.87 5.2982 284.83 4.3382C285.95 3.21819 287.31 2.65819 288.91 2.65819H301.15C302.91 2.65819 304.27 3.21819 305.23 4.3382C306.35 5.2982 306.91 6.65819 306.91 8.41819V165.138C306.91 166.738 306.35 168.098 305.23 169.218C304.27 170.178 302.91 170.658 301.15 170.658H288.91C287.31 170.658 285.95 170.178 284.83 169.218C283.87 168.098 283.39 166.738 283.39 165.138V96.2582L200.83 96.2582V165.138C200.83 166.738 200.27 168.098 199.15 169.218C198.19 170.178 196.83 170.658 195.07 170.658H182.83ZM353.923 170.658C352.323 170.658 350.963 170.178 349.843 169.218C348.883 168.098 348.403 166.738 348.403 165.138V8.41819C348.403 6.65819 348.883 5.2982 349.843 4.3382C350.963 3.21819 352.323 2.65819 353.923 2.65819H365.923C367.843 2.65819 369.283 3.1382 370.243 4.0982C371.203 5.0582 371.763 5.8582 371.923 6.4982L422.803 103.458L473.923 6.4982C474.243 5.8582 474.803 5.0582 475.603 4.0982C476.563 3.1382 478.003 2.65819 479.923 2.65819H491.683C493.443 2.65819 494.803 3.21819 495.763 4.3382C496.883 5.2982 497.443 6.65819 497.443 8.41819V165.138C497.443 166.738 496.883 168.098 495.763 169.218C494.803 170.178 493.443 170.658 491.683 170.658H479.923C478.323 170.658 476.963 170.178 475.843 169.218C474.883 168.098 474.403 166.738 474.403 165.138V47.0582L434.323 125.298C433.683 126.898 432.723 128.178 431.443 129.138C430.163 129.938 428.563 130.338 426.643 130.338H419.203C417.123 130.338 415.443 129.938 414.163 129.138C413.043 128.178 412.083 126.898 411.283 125.298L371.203 47.0582V165.138C371.203 166.738 370.643 168.098 369.523 169.218C368.563 170.178 367.283 170.658 365.683 170.658H353.923ZM527.67 170.658C526.39 170.658 525.27 170.178 524.31 169.218C523.35 168.258 522.87 167.138 522.87 165.858C522.87 165.058 522.95 164.178 523.11 163.218L582.63 7.9382C583.27 6.3382 584.15 5.0582 585.27 4.0982C586.39 3.1382 588.07 2.65819 590.31 2.65819H606.63C608.71 2.65819 610.31 3.1382 611.43 4.0982C612.71 5.0582 613.67 6.3382 614.31 7.9382L673.59 163.218C673.91 164.178 674.07 165.058 674.07 165.858C674.07 167.138 673.59 168.258 672.63 169.218C671.67 170.178 670.55 170.658 669.27 170.658H657.03C655.11 170.658 653.67 170.178 652.71 169.218C651.91 168.258 651.35 167.378 651.03 166.578L637.83 132.498H559.11L545.91 166.578C545.75 167.378 545.19 168.258 544.23 169.218C543.27 170.178 541.83 170.658 539.91 170.658H527.67ZM566.07 111.858H630.87L598.47 26.6582L566.07 111.858ZM705.252 170.658C703.492 170.658 702.132 170.178 701.172 169.218C700.212 168.098 699.732 166.738 699.732 165.138V8.41819C699.732 6.65819 700.212 5.2982 701.172 4.3382C702.132 3.21819 703.492 2.65819 705.252 2.65819H759.732C776.212 2.65819 789.492 5.13819 799.572 10.0982C809.652 15.0582 817.012 22.4182 821.652 32.1782C826.292 41.7782 828.692 53.6182 828.852 67.6982C829.012 74.8982 829.092 81.2182 829.092 86.6582C829.092 92.0982 829.012 98.3382 828.852 105.378C828.532 120.098 826.052 132.338 821.412 142.098C816.932 151.698 809.732 158.898 799.812 163.698C790.052 168.338 777.092 170.658 760.932 170.658H705.252ZM723.252 150.258H759.732C770.772 150.258 779.572 148.738 786.132 145.698C792.692 142.658 797.412 137.778 800.292 131.058C803.332 124.338 804.932 115.458 805.092 104.418C805.412 99.6182 805.572 95.4582 805.572 91.9382C805.572 88.2582 805.572 84.6582 805.572 81.1382C805.572 77.4582 805.412 73.2982 805.092 68.6582C804.772 53.1382 801.092 41.6982 794.052 34.3382C787.012 26.8182 775.172 23.0582 758.532 23.0582H723.252V150.258ZM929.548 170.658C927.788 170.658 926.428 170.178 925.468 169.218C924.508 168.098 924.028 166.738 924.028 165.138V8.41819C924.028 6.65819 924.508 5.2982 925.468 4.3382C926.428 3.21819 927.788 2.65819 929.548 2.65819H941.788C943.548 2.65819 944.908 3.21819 945.868 4.3382C946.988 5.2982 947.548 6.65819 947.548 8.41819V74.6582H1030.11V8.41819C1030.11 6.65819 1030.59 5.2982 1031.55 4.3382C1032.67 3.21819 1034.03 2.65819 1035.63 2.65819H1047.87C1049.63 2.65819 1050.99 3.21819 1051.95 4.3382C1053.07 5.2982 1053.63 6.65819 1053.63 8.41819V165.138C1053.63 166.738 1053.07 168.098 1051.95 169.218C1050.99 170.178 1049.63 170.658 1047.87 170.658H1035.63C1034.03 170.658 1032.67 170.178 1031.55 169.218C1030.59 168.098 1030.11 166.738 1030.11 165.138V96.2582H947.548V165.138C947.548 166.738 946.988 168.098 945.868 169.218C944.908 170.178 943.548 170.658 941.788 170.658H929.548ZM1083.84 170.658C1082.56 170.658 1081.44 170.178 1080.48 169.218C1079.52 168.258 1079.04 167.138 1079.04 165.858C1079.04 165.058 1079.12 164.178 1079.28 163.218L1138.8 7.9382C1139.44 6.3382 1140.32 5.0582 1141.44 4.0982C1142.56 3.1382 1144.24 2.65819 1146.48 2.65819H1162.8C1164.88 2.65819 1166.48 3.1382 1167.6 4.0982C1168.88 5.0582 1169.84 6.3382 1170.48 7.9382L1229.76 163.218C1230.08 164.178 1230.24 165.058 1230.24 165.858C1230.24 167.138 1229.76 168.258 1228.8 169.218C1227.84 170.178 1226.72 170.658 1225.44 170.658H1213.2C1211.28 170.658 1209.84 170.178 1208.88 169.218C1208.08 168.258 1207.52 167.378 1207.2 166.578L1194 132.498H1115.28L1102.08 166.578C1101.92 167.378 1101.36 168.258 1100.4 169.218C1099.44 170.178 1098 170.658 1096.08 170.658H1083.84ZM1122.24 111.858H1187.04L1154.64 26.6582L1122.24 111.858ZM1307.56 173.058C1293.64 173.058 1281.96 170.978 1272.52 166.818C1263.08 162.498 1255.8 156.978 1250.68 150.258C1245.72 143.378 1243.08 136.098 1242.76 128.418C1242.76 127.138 1243.24 126.018 1244.2 125.058C1245.32 123.938 1246.6 123.378 1248.04 123.378H1260.28C1262.2 123.378 1263.64 123.858 1264.6 124.818C1265.56 125.778 1266.2 126.898 1266.52 128.178C1267.32 132.018 1269.24 135.858 1272.28 139.698C1275.48 143.378 1279.88 146.498 1285.48 149.058C1291.24 151.458 1298.6 152.658 1307.56 152.658C1321.32 152.658 1331.4 150.258 1337.8 145.458C1344.36 140.498 1347.64 133.938 1347.64 125.778C1347.64 120.178 1345.88 115.698 1342.36 112.338C1339 108.818 1333.8 105.698 1326.76 102.978C1319.72 100.258 1310.6 97.2982 1299.4 94.0982C1287.72 90.7382 1278.04 87.0582 1270.36 83.0582C1262.68 79.0582 1256.92 74.0982 1253.08 68.1782C1249.4 62.2582 1247.56 54.7382 1247.56 45.6182C1247.56 36.9782 1249.88 29.2982 1254.52 22.5782C1259.16 15.6982 1265.8 10.2582 1274.44 6.25819C1283.24 2.25819 1293.88 0.258194 1306.36 0.258194C1316.28 0.258194 1324.92 1.6182 1332.28 4.3382C1339.8 6.89819 1346.04 10.4182 1351 14.8982C1355.96 19.2182 1359.72 23.9382 1362.28 29.0582C1364.84 34.0182 1366.2 38.8982 1366.36 43.6982C1366.36 44.8182 1365.96 45.9382 1365.16 47.0582C1364.36 48.0182 1363.08 48.4982 1361.32 48.4982H1348.6C1347.48 48.4982 1346.28 48.1782 1345 47.5382C1343.88 46.8982 1343 45.6982 1342.36 43.9382C1341.4 37.3782 1337.72 31.8582 1331.32 27.3782C1324.92 22.8982 1316.6 20.6582 1306.36 20.6582C1295.96 20.6582 1287.48 22.6582 1280.92 26.6582C1274.52 30.6582 1271.32 36.8982 1271.32 45.3782C1271.32 50.8182 1272.84 55.3782 1275.88 59.0582C1278.92 62.5782 1283.72 65.6982 1290.28 68.4182C1296.84 71.1382 1305.4 74.0182 1315.96 77.0582C1328.76 80.5782 1339.24 84.3382 1347.4 88.3382C1355.56 92.1782 1361.56 97.0582 1365.4 102.978C1369.4 108.738 1371.4 116.178 1371.4 125.298C1371.4 135.378 1368.76 144.018 1363.48 151.218C1358.2 158.258 1350.76 163.698 1341.16 167.538C1331.72 171.218 1320.52 173.058 1307.56 173.058ZM1456.86 173.058C1442.94 173.058 1431.26 170.978 1421.82 166.818C1412.38 162.498 1405.1 156.978 1399.98 150.258C1395.02 143.378 1392.38 136.098 1392.06 128.418C1392.06 127.138 1392.54 126.018 1393.5 125.058C1394.62 123.938 1395.9 123.378 1397.34 123.378H1409.58C1411.5 123.378 1412.94 123.858 1413.9 124.818C1414.86 125.778 1415.5 126.898 1415.82 128.178C1416.62 132.018 1418.54 135.858 1421.58 139.698C1424.78 143.378 1429.18 146.498 1434.78 149.058C1440.54 151.458 1447.9 152.658 1456.86 152.658C1470.62 152.658 1480.7 150.258 1487.1 145.458C1493.66 140.498 1496.94 133.938 1496.94 125.778C1496.94 120.178 1495.18 115.698 1491.66 112.338C1488.3 108.818 1483.1 105.698 1476.06 102.978C1469.02 100.258 1459.9 97.2982 1448.7 94.0982C1437.02 90.7382 1427.34 87.0582 1419.66 83.0582C1411.98 79.0582 1406.22 74.0982 1402.38 68.1782C1398.7 62.2582 1396.86 54.7382 1396.86 45.6182C1396.86 36.9782 1399.18 29.2982 1403.82 22.5782C1408.46 15.6982 1415.1 10.2582 1423.74 6.25819C1432.54 2.25819 1443.18 0.258194 1455.66 0.258194C1465.58 0.258194 1474.22 1.6182 1481.58 4.3382C1489.1 6.89819 1495.34 10.4182 1500.3 14.8982C1505.26 19.2182 1509.02 23.9382 1511.58 29.0582C1514.14 34.0182 1515.5 38.8982 1515.66 43.6982C1515.66 44.8182 1515.26 45.9382 1514.46 47.0582C1513.66 48.0182 1512.38 48.4982 1510.62 48.4982H1497.9C1496.78 48.4982 1495.58 48.1782 1494.3 47.5382C1493.18 46.8982 1492.3 45.6982 1491.66 43.9382C1490.7 37.3782 1487.02 31.8582 1480.62 27.3782C1474.22 22.8982 1465.9 20.6582 1455.66 20.6582C1445.26 20.6582 1436.78 22.6582 1430.22 26.6582C1423.82 30.6582 1420.62 36.8982 1420.62 45.3782C1420.62 50.8182 1422.14 55.3782 1425.18 59.0582C1428.22 62.5782 1433.02 65.6982 1439.58 68.4182C1446.14 71.1382 1454.7 74.0182 1465.26 77.0582C1478.06 80.5782 1488.54 84.3382 1496.7 88.3382C1504.86 92.1782 1510.86 97.0582 1514.7 102.978C1518.7 108.738 1520.7 116.178 1520.7 125.298C1520.7 135.378 1518.06 144.018 1512.78 151.218C1507.5 158.258 1500.06 163.698 1490.46 167.538C1481.02 171.218 1469.82 173.058 1456.86 173.058ZM1538.53 170.658C1537.25 170.658 1536.13 170.178 1535.17 169.218C1534.21 168.258 1533.73 167.138 1533.73 165.858C1533.73 165.058 1533.81 164.178 1533.97 163.218L1593.49 7.9382C1594.13 6.3382 1595.01 5.0582 1596.13 4.0982C1597.25 3.1382 1598.93 2.65819 1601.17 2.65819H1617.49C1619.57 2.65819 1621.17 3.1382 1622.29 4.0982C1623.57 5.0582 1624.53 6.3382 1625.17 7.9382L1684.45 163.218C1684.77 164.178 1684.93 165.058 1684.93 165.858C1684.93 167.138 1684.45 168.258 1683.49 169.218C1682.53 170.178 1681.41 170.658 1680.13 170.658H1667.89C1665.97 170.658 1664.53 170.178 1663.57 169.218C1662.77 168.258 1662.21 167.378 1661.89 166.578L1648.69 132.498H1569.97L1556.77 166.578C1556.61 167.378 1556.05 168.258 1555.09 169.218C1554.13 170.178 1552.69 170.658 1550.77 170.658H1538.53ZM1576.93 111.858H1641.73L1609.33 26.6582L1576.93 111.858ZM1716.11 170.658C1714.35 170.658 1712.99 170.178 1712.03 169.218C1711.07 168.098 1710.59 166.738 1710.59 165.138V8.41819C1710.59 6.65819 1711.07 5.2982 1712.03 4.3382C1712.99 3.21819 1714.35 2.65819 1716.11 2.65819L1727.15 2.65819C1729.07 2.65819 1730.51 3.1382 1731.47 4.0982C1732.43 4.8982 1732.99 5.5382 1733.15 6.01819L1812.83 128.418V8.41819C1812.83 6.65819 1813.31 5.2982 1814.27 4.3382C1815.23 3.21819 1816.59 2.65819 1818.35 2.65819H1829.87C1831.63 2.65819 1832.99 3.21819 1833.95 4.3382C1835.07 5.2982 1835.63 6.65819 1835.63 8.41819V164.898C1835.63 166.498 1835.07 167.858 1833.95 168.978C1832.99 170.098 1831.71 170.658 1830.11 170.658H1818.59C1816.83 170.658 1815.47 170.178 1814.51 169.218C1813.71 168.258 1813.15 167.618 1812.83 167.298L1733.39 46.0982V165.138C1733.39 166.738 1732.83 168.098 1731.71 169.218C1730.75 170.178 1729.39 170.658 1727.63 170.658H1716.11Z" fill="#175A5D"/>
</svg>
